# xmcd
#
# Track frame offsets: 
#        150
#        13442
#        26285
#        38885
#        51015
#        62940
#        73742
#        84845
#        95312
#        107090
#        118837
#        131910
#        143992
#        154477
#        164705
#        175410
#        186355
#        198300
#        210212
#        221992
#        234810
#        246147
#        257855
#        269365
#        279875
#        289490
#        301210
#        311150
#        325457
#
# Disc length: 4504 seconds
#
# Revision: 1
# Processed by: cddbd v1.5.2PL0 Copyright (c) Steve Scherf et al.
# Submitted via: ExactAudioCopyFreeDBPlugin 1.0
#
DISCID=c111961d
DTITLE=Various Artist - A Shot in the Dark:  Nashville Jumps - Blues 
DTITLE=and Rhythm on Nashville Independent Labels, 1945-1955
DYEAR=2000
DGENRE=Rhythm and Blues
TTITLE0=Don Q and His Q Tones - Private Property Blues
TTITLE1=Don Q and His Q Tones - Baby I Don't Need You Now
TTITLE2=Joe Williams - Jivin' Woman
TTITLE3=Joe Williams - She's a Married Woman
TTITLE4=Walter Davis - I Just Can't Help It
TTITLE5=Cecil Gant - Bullet Boogie
TTITLE6=Cecil Gant - So Tired
TTITLE7=Cecil Gant - Take it and Get
TTITLE8=Walter Davis - Lonely Nights
TTITLE9=Dusty Brooks - Chili-Dogs
TTITLE10=Tucker Coles - Don't Get Excited
TTITLE11=Tucker Coles - T C Blues
TTITLE12=Little Eddie - My Baby Left Me
TTITLE13=Little Eddie - Darling You Know I Love You
TTITLE14=Tucker Coles - House Rockers Jamboree
TTITLE15=J.D. Horton - Why Don't You Let Me Be
TTITLE16=J.D. Horton - Cadillac Blues
TTITLE17=The Big Three Trio - Don't Let That Music Die (ft Willie Dixo
TTITLE17=n)
TTITLE18=The Big Three Trio - Till the Day I Die (ft Willie Dixon)
TTITLE19=The Big Three Trio - Goodbye Mr. Blues (ft Willie Dixon)
TTITLE20=The Big Three Trio - Why Do You Like Me Like You Do (ft Willi
TTITLE20=e Dixon)
TTITLE21=The Big Three Trio - Appetite Blues (ft Willie Dixon)
TTITLE22=Tom Douglas - Raid on Cedar Street
TTITLE23=Vivian Verson - Payday Lover
TTITLE24=Vivian Verson - I Want to Know
TTITLE25=Eddie Jones - Feelin' Sad
TTITLE26=Eddie Jones - Certainly All
TTITLE27=Walter "Tang" Smith - Every Monday Morning Blues
TTITLE28=Walter "Tang" Smith - High Tone Mama
EXTD=
EXTT0=
EXTT1=
EXTT2=
EXTT3=
EXTT4=
EXTT5=
EXTT6=
EXTT7=
EXTT8=
EXTT9=
EXTT10=
EXTT11=
EXTT12=
EXTT13=
EXTT14=
EXTT15=
EXTT16=
EXTT17=
EXTT18=
EXTT19=
EXTT20=
EXTT21=
EXTT22=
EXTT23=
EXTT24=
EXTT25=
EXTT26=
EXTT27=
EXTT28=
PLAYORDER=
